M48
; DRILL file {KiCad 7.0.2} date Mon Oct  9 01:37:33 2023
; FORMAT={-:-/ absolute / inch / decimal}
; #@! TF.CreationDate,2023-10-09T01:37:33+08:00
; #@! TF.GenerationSoftware,Kicad,Pcbnew,7.0.2
; #@! TF.FileFunction,Plated,1,2,PTH
FMAT,2
INCH
; #@! TA.AperFunction,Plated,PTH,ViaDrill
T1C0.0138
; #@! TA.AperFunction,Plated,PTH,ViaDrill
T2C0.0157
; #@! TA.AperFunction,Plated,PTH,ComponentDrill
T3C0.0236
; #@! TA.AperFunction,Plated,PTH,ComponentDrill
T4C0.0276
; #@! TA.AperFunction,Plated,PTH,ComponentDrill
T5C0.0295
; #@! TA.AperFunction,Plated,PTH,ComponentDrill
T6C0.0315
; #@! TA.AperFunction,Plated,PTH,ComponentDrill
T7C0.0320
; #@! TA.AperFunction,Plated,PTH,ComponentDrill
T8C0.0340
; #@! TA.AperFunction,Plated,PTH,ComponentDrill
T9C0.0400
; #@! TA.AperFunction,Plated,PTH,ComponentDrill
T10C0.0433
; #@! TA.AperFunction,Plated,PTH,ComponentDrill
T11C0.0440
; #@! TA.AperFunction,Plated,PTH,ComponentDrill
T12C0.0472
; #@! TA.AperFunction,Plated,PTH,ComponentDrill
T13C0.0630
; #@! TA.AperFunction,Plated,PTH,ComponentDrill
T14C0.1000
; #@! TA.AperFunction,Plated,PTH,ComponentDrill
T15C0.1180
; #@! TA.AperFunction,Plated,PTH,ComponentDrill
T16C0.1300
%
G90
G05
T1
X4.16Y-4.32
X4.1965Y-4.234
X4.5215Y-3.084
X4.5215Y-3.159
X4.5215Y-3.334
X4.5215Y-3.634
X4.5215Y-3.734
X4.5215Y-3.834
X4.8965Y-4.484
X4.9465Y-6.309
X4.9965Y-4.584
X4.9965Y-6.259
X5.0465Y-4.959
X5.0465Y-6.209
X5.0715Y-4.734
X5.1965Y-2.984
X5.1965Y-3.084
X5.1965Y-3.184
X5.1965Y-3.284
X5.2465Y-4.334
X5.2715Y-3.034
X5.2715Y-3.134
X5.2715Y-3.234
X5.3215Y-4.409
X5.3465Y-2.984
X5.3465Y-3.084
X5.3465Y-3.184
X5.3465Y-3.284
X5.3965Y-4.234
X5.3965Y-4.284
X5.4215Y-3.034
X5.4215Y-3.234
X5.4215Y-3.834
X5.4715Y-2.984
X5.4715Y-3.284
X5.5465Y-4.559
X5.5965Y-4.234
X5.5965Y-4.384
X5.6215Y-3.859
X5.6465Y-4.484
X5.6465Y-4.659
X5.6715Y-3.9359
X5.6965Y-4.484
X5.6965Y-4.709
X5.7965Y-4.334
X5.8715Y-3.984
X5.8965Y-4.384
X5.8965Y-4.484
X5.9465Y-4.384
X5.9465Y-4.484
X6.0965Y-3.909
X6.1465Y-4.4371
X6.2465Y-3.359
X6.2715Y-4.484
X6.2965Y-3.834
X6.2965Y-3.934
X6.2965Y-4.134
X6.2965Y-4.184
X6.3215Y-3.334
X6.3715Y-3.384
X6.3965Y-4.434
X6.4465Y-4.284
X6.5465Y-4.609
X6.6465Y-5.584
X6.6965Y-5.559
X6.7465Y-5.584
X7.2715Y-4.534
X7.4215Y-4.534
X7.4965Y-5.234
X7.5965Y-4.484
T2
X3.71Y-4.28
X3.71Y-4.48
X3.77Y-4.34
X3.77Y-4.43
X4.34Y-4.57
X6.3465Y-5.1165
X6.86Y-5.15
X6.88Y-5.53
T4
X5.9246Y-2.0215
X6.0231Y-2.0215
X6.1215Y-1.8246
X6.2199Y-2.0215
X6.3184Y-2.0215
T5
X4.0Y-4.64
X4.0Y-4.69
X4.0Y-4.74
X4.2Y-4.6658
X4.25Y-4.6658
X4.3Y-4.6658
T6
X4.3178Y-5.059
X4.3965Y-5.059
X4.4752Y-5.059
T7
X3.51Y-4.64
X3.51Y-4.94
X3.57Y-5.17
X3.57Y-5.27
X3.57Y-5.42
X3.57Y-5.52
X3.57Y-5.67
X3.57Y-5.77
X3.62Y-4.64
X3.62Y-4.94
X3.9965Y-1.784
X3.9965Y-2.084
X4.1215Y-4.084
X4.2215Y-4.084
X4.2965Y-2.359
X4.2965Y-2.459
X4.2965Y-2.559
X4.2965Y-2.659
X4.47Y-4.38
X4.47Y-4.68
X4.4965Y-2.284
X4.4965Y-2.384
X4.4965Y-2.559
X4.4965Y-2.659
X4.57Y-4.38
X4.57Y-4.68
X4.6715Y-4.384
X4.6715Y-4.684
X4.6965Y-2.759
X4.6965Y-2.859
X4.6965Y-3.059
X4.6965Y-3.159
X4.6965Y-3.259
X4.6965Y-3.359
X4.6965Y-3.459
X4.6965Y-3.559
X4.6965Y-3.659
X4.6965Y-3.759
X4.6965Y-3.859
X4.7215Y-4.084
X4.7215Y-4.184
X4.7715Y-4.484
X4.7715Y-4.584
X4.8215Y-3.034
X4.8215Y-3.134
X4.9465Y-2.834
X4.9465Y-2.934
X5.1965Y-5.184
X5.1965Y-5.484
X5.2715Y-4.459
X5.2715Y-4.759
X5.2965Y-5.184
X5.2965Y-5.484
X5.3715Y-2.209
X5.3715Y-2.309
X5.3965Y-5.184
X5.3965Y-5.484
X5.4965Y-5.184
X5.4965Y-5.484
X5.5965Y-5.184
X5.5965Y-5.484
X5.6715Y-2.209
X5.6715Y-2.309
X5.6965Y-5.184
X5.6965Y-5.484
X5.7965Y-5.184
X5.7965Y-5.484
X5.8965Y-5.184
X5.8965Y-5.484
X5.9965Y-2.459
X5.9965Y-2.759
X5.9965Y-5.184
X5.9965Y-5.484
X6.0965Y-2.434
X6.0965Y-5.184
X6.0965Y-5.484
X6.1965Y-2.434
X6.1965Y-5.184
X6.1965Y-5.484
X6.2965Y-2.434
X6.2965Y-5.184
X6.2965Y-5.484
X6.3465Y-4.584
X6.3465Y-4.884
X6.3965Y-2.434
X6.3965Y-5.184
X6.3965Y-5.484
X6.4465Y-4.584
X6.4465Y-4.884
X6.4965Y-2.459
X6.4965Y-2.759
X6.4965Y-2.859
X6.4965Y-2.959
X6.4965Y-3.059
X6.4965Y-3.159
X6.4965Y-5.184
X6.4965Y-5.484
X6.6715Y-5.184
X6.6715Y-5.284
X6.6715Y-5.359
X6.6715Y-5.459
X6.7965Y-2.859
X6.7965Y-2.959
X6.7965Y-3.059
X6.7965Y-3.159
X6.8465Y-2.059
X6.8465Y-2.159
X6.9465Y-5.834
X6.9465Y-5.934
X6.9465Y-6.084
X6.9465Y-6.184
X6.9465Y-6.334
X6.9465Y-6.484
X6.9965Y-2.434
X6.9965Y-2.534
X6.9965Y-2.834
X7.0215Y-1.809
X7.0215Y-1.909
X7.0215Y-2.959
X7.0215Y-3.059
X7.0465Y-4.109
X7.0465Y-4.209
X7.0465Y-6.334
X7.0465Y-6.484
X7.0965Y-2.434
X7.0965Y-2.534
X7.0965Y-2.834
X7.0965Y-4.359
X7.0965Y-4.959
X7.1465Y-2.059
X7.1465Y-2.159
X7.1465Y-5.834
X7.1465Y-5.934
X7.1465Y-6.084
X7.1465Y-6.184
X7.1465Y-6.334
X7.1465Y-6.484
X7.1965Y-2.534
X7.1965Y-2.834
X7.1965Y-4.359
X7.1965Y-4.959
X7.2465Y-2.959
X7.2465Y-3.059
X7.2465Y-3.184
X7.2465Y-3.284
X7.2465Y-4.109
X7.2465Y-4.209
X7.2465Y-6.334
X7.2465Y-6.484
X7.2965Y-2.534
X7.2965Y-2.834
X7.2965Y-4.359
X7.2965Y-4.959
X7.3215Y-1.809
X7.3215Y-1.909
X7.3465Y-5.209
X7.3465Y-5.309
X7.3465Y-5.834
X7.3465Y-5.934
X7.3465Y-6.084
X7.3465Y-6.184
X7.3465Y-6.334
X7.3465Y-6.484
X7.3715Y-3.559
X7.3715Y-3.659
X7.3715Y-3.909
X7.3715Y-4.009
X7.3965Y-4.359
X7.3965Y-4.959
X7.4215Y-2.359
X7.4215Y-2.459
X7.4215Y-2.559
X7.4215Y-2.659
X7.4215Y-2.759
X7.4215Y-2.859
X7.4215Y-2.984
X7.4215Y-3.084
X7.4215Y-3.184
X7.4215Y-3.284
X7.4465Y-6.334
X7.4465Y-6.484
X7.4965Y-3.459
X7.4965Y-3.759
X7.4965Y-3.909
X7.4965Y-4.209
X7.4965Y-4.359
X7.4965Y-4.959
X7.4965Y-5.109
X7.4965Y-5.409
X7.5215Y-2.159
X7.5215Y-2.259
X7.5465Y-5.834
X7.5465Y-5.934
X7.5465Y-6.084
X7.5465Y-6.184
X7.5465Y-6.334
X7.5465Y-6.484
X7.5715Y-1.769
X7.5715Y-1.849
X7.5715Y-1.969
X7.5715Y-2.049
X7.5965Y-3.459
X7.5965Y-3.759
X7.5965Y-3.909
X7.5965Y-4.209
X7.5965Y-4.359
X7.5965Y-4.959
X7.5965Y-5.109
X7.5965Y-5.409
X7.6215Y-2.159
X7.6215Y-2.259
X7.6465Y-6.334
X7.6465Y-6.484
X7.6965Y-3.459
X7.6965Y-3.759
X7.6965Y-3.909
X7.6965Y-4.209
X7.6965Y-4.359
X7.6965Y-4.959
X7.6965Y-5.109
X7.6965Y-5.409
X7.7215Y-2.359
X7.7215Y-2.459
X7.7215Y-2.559
X7.7215Y-2.659
X7.7215Y-2.759
X7.7215Y-2.859
X7.7215Y-2.984
X7.7215Y-3.084
X7.7215Y-3.184
X7.7215Y-3.284
X7.7465Y-5.544
X7.7465Y-5.624
X7.7465Y-6.084
X7.7465Y-6.184
X7.7465Y-6.334
X7.7465Y-6.484
X7.7715Y-1.769
X7.7715Y-1.849
X7.7715Y-1.969
X7.7715Y-2.049
X7.7965Y-3.459
X7.7965Y-3.759
X7.7965Y-3.909
X7.7965Y-4.209
X7.7965Y-4.359
X7.7965Y-4.959
X7.7965Y-5.109
X7.7965Y-5.409
X7.8465Y-2.984
X7.8465Y-3.084
X7.8465Y-3.184
X7.8465Y-3.284
X7.8965Y-3.459
X7.8965Y-3.759
X7.8965Y-3.909
X7.8965Y-4.209
X7.8965Y-4.359
X7.8965Y-4.959
X7.8965Y-5.109
X7.8965Y-5.409
X7.8965Y-5.534
X7.9465Y-5.709
X7.9465Y-6.084
X7.9465Y-6.184
X7.9965Y-3.459
X7.9965Y-3.759
X7.9965Y-3.909
X7.9965Y-4.209
X7.9965Y-4.359
X7.9965Y-4.959
X7.9965Y-5.109
X7.9965Y-5.409
X8.0465Y-5.709
X8.0965Y-3.459
X8.0965Y-3.759
X8.0965Y-3.909
X8.0965Y-4.209
X8.0965Y-4.359
X8.0965Y-4.959
X8.0965Y-5.109
X8.0965Y-5.409
X8.1465Y-2.984
X8.1465Y-3.084
X8.1465Y-3.184
X8.1465Y-3.284
X8.1465Y-5.709
X8.1465Y-6.084
X8.1465Y-6.184
X8.1965Y-3.459
X8.1965Y-3.759
X8.1965Y-3.909
X8.1965Y-4.209
X8.1965Y-4.359
X8.1965Y-4.959
X8.1965Y-5.109
X8.1965Y-5.409
X8.1965Y-5.534
T8
X6.9715Y-3.609
X7.1685Y-3.609
T9
X3.8715Y-1.834
X3.8715Y-1.934
X3.8715Y-2.034
X3.9185Y-5.92
X3.9185Y-6.098
X4.1615Y-2.409
X4.1615Y-2.509
X4.1615Y-2.609
X4.1745Y-5.92
X4.1745Y-6.098
X4.2685Y-5.57
X4.2685Y-5.748
X4.2685Y-6.27
X4.2685Y-6.448
X4.5245Y-5.57
X4.5245Y-5.748
X4.5245Y-6.27
X4.5245Y-6.448
X4.6185Y-5.92
X4.6185Y-6.098
X4.8745Y-5.92
X4.8745Y-6.098
X5.1185Y-5.92
X5.1185Y-6.098
X5.1965Y-5.034
X5.2965Y-5.034
X5.3745Y-5.92
X5.3745Y-6.098
X5.3965Y-5.034
X5.4965Y-5.034
X5.5965Y-5.034
X5.6965Y-5.034
X5.7185Y-5.92
X5.7185Y-6.098
X5.7965Y-5.034
X5.8965Y-5.034
X5.9745Y-5.92
X5.9745Y-6.098
X5.9965Y-5.034
X6.0965Y-5.034
X6.1965Y-5.034
X6.2965Y-5.034
X6.3185Y-5.92
X6.3185Y-6.098
X6.3965Y-5.034
X6.4965Y-5.034
X6.5745Y-5.92
X6.5745Y-6.098
T10
X4.1215Y-1.784
X4.1215Y-2.084
X4.329Y-3.0049
T11
X4.9465Y-3.034
X4.9465Y-3.134
X4.9465Y-3.234
T12
X7.9496Y-2.3371
X7.9496Y-2.534
X7.9496Y-2.7309
X8.1465Y-2.3371
X8.1465Y-2.534
X8.1465Y-2.7309
T13
X4.329Y-3.8316
T14
X3.9255Y-2.306
X3.9255Y-2.712
T15
X4.2865Y-1.9803
X4.4715Y-1.8621
X4.4715Y-2.0984
T16
X5.5365Y-3.134
T3
G00X3.4684Y-4.2099
M15
G01X3.4448Y-4.2099
M16
G05
G00X3.4684Y-4.5501
M15
G01X3.4448Y-4.5501
M16
G05
G00X3.6428Y-4.2099
M15
G01X3.5995Y-4.2099
M16
G05
G00X3.6428Y-4.5501
M15
G01X3.5995Y-4.5501
M16
G05
T0
M30
