M48
; DRILL file {KiCad 7.0.2} date Mon Oct  9 01:37:33 2023
; FORMAT={-:-/ absolute / inch / decimal}
; #@! TF.CreationDate,2023-10-09T01:37:33+08:00
; #@! TF.GenerationSoftware,Kicad,Pcbnew,7.0.2
; #@! TF.FileFunction,NonPlated,1,2,NPTH
FMAT,2
INCH
; #@! TA.AperFunction,NonPlated,NPTH,ComponentDrill
T1C0.0256
; #@! TA.AperFunction,NonPlated,NPTH,ComponentDrill
T2C0.0472
; #@! TA.AperFunction,NonPlated,NPTH,ComponentDrill
T3C0.0591
; #@! TA.AperFunction,NonPlated,NPTH,ComponentDrill
T4C0.1000
; #@! TA.AperFunction,NonPlated,NPTH,ComponentDrill
T5C0.1250
; #@! TA.AperFunction,NonPlated,NPTH,ComponentDrill
T6C0.1260
; #@! TA.AperFunction,NonPlated,NPTH,ComponentDrill
T7C0.1417
%
G90
G05
T1
X3.6003Y-4.2662
X3.6003Y-4.4938
T2
X5.9246Y-1.7262
X5.9246Y-1.8246
X6.1215Y-2.0215
X6.3184Y-1.7262
X6.3184Y-1.8246
T3
X4.2351Y-5.059
X4.5579Y-5.059
T4
X3.5465Y-2.259
X3.5465Y-2.509
X3.5465Y-2.759
X3.8465Y-2.509
T5
X3.6965Y-2.359
X3.6965Y-2.659
T6
X3.5715Y-1.859
X3.5715Y-6.409
X8.1215Y-1.859
X8.1215Y-6.409
T7
X4.9815Y-1.844
X5.1265Y-2.189
X6.5665Y-2.189
X6.7115Y-1.844
T0
M30
