%TF.GenerationSoftware,KiCad,Pcbnew,7.0.2*%
%TF.CreationDate,2024-05-21T23:22:59+08:00*%
%TF.ProjectId,MegaGRRLDesktop,4d656761-4752-4524-9c44-65736b746f70,rev?*%
%TF.SameCoordinates,Original*%
%TF.FileFunction,Soldermask,Bot*%
%TF.FilePolarity,Negative*%
%FSLAX46Y46*%
G04 Gerber Fmt 4.6, Leading zero omitted, Abs format (unit mm)*
G04 Created by KiCad (PCBNEW 7.0.2) date 2024-05-21 23:22:59*
%MOMM*%
%LPD*%
G01*
G04 APERTURE LIST*
G04 Aperture macros list*
%AMRoundRect*
0 Rectangle with rounded corners*
0 $1 Rounding radius*
0 $2 $3 $4 $5 $6 $7 $8 $9 X,Y pos of 4 corners*
0 Add a 4 corners polygon primitive as box body*
4,1,4,$2,$3,$4,$5,$6,$7,$8,$9,$2,$3,0*
0 Add four circle primitives for the rounded corners*
1,1,$1+$1,$2,$3*
1,1,$1+$1,$4,$5*
1,1,$1+$1,$6,$7*
1,1,$1+$1,$8,$9*
0 Add four rect primitives between the rounded corners*
20,1,$1+$1,$2,$3,$4,$5,0*
20,1,$1+$1,$4,$5,$6,$7,0*
20,1,$1+$1,$6,$7,$8,$9,0*
20,1,$1+$1,$8,$9,$2,$3,0*%
%AMFreePoly0*
4,1,25,0.333266,0.742596,0.345389,0.732242,0.732242,0.345389,0.760749,0.289441,0.762000,0.273547,0.762000,-0.273547,0.742596,-0.333266,0.732242,-0.345389,0.345389,-0.732242,0.289441,-0.760749,0.273547,-0.762000,-0.273547,-0.762000,-0.333266,-0.742596,-0.345389,-0.732242,-0.732242,-0.345389,-0.760749,-0.289441,-0.762000,-0.273547,-0.762000,0.273547,-0.742596,0.333266,-0.732242,0.345389,
-0.345389,0.732242,-0.289441,0.760749,-0.273547,0.762000,0.273547,0.762000,0.333266,0.742596,0.333266,0.742596,$1*%
%AMFreePoly1*
4,1,25,0.391131,0.882296,0.403254,0.871942,0.871942,0.403254,0.900449,0.347306,0.901700,0.331412,0.901700,-0.331412,0.882296,-0.391131,0.871942,-0.403254,0.403254,-0.871942,0.347306,-0.900449,0.331412,-0.901700,-0.331412,-0.901700,-0.391131,-0.882296,-0.403254,-0.871942,-0.871942,-0.403254,-0.900449,-0.347306,-0.901700,-0.331412,-0.901700,0.331412,-0.882296,0.391131,-0.871942,0.403254,
-0.403254,0.871942,-0.347306,0.900449,-0.331412,0.901700,0.331412,0.901700,0.391131,0.882296,0.391131,0.882296,$1*%
%AMFreePoly2*
4,1,25,0.322745,0.717196,0.334868,0.706842,0.706842,0.334868,0.735349,0.278920,0.736600,0.263026,0.736600,-0.263026,0.717196,-0.322745,0.706842,-0.334868,0.334868,-0.706842,0.278920,-0.735349,0.263026,-0.736600,-0.263026,-0.736600,-0.322745,-0.717196,-0.334868,-0.706842,-0.706842,-0.334868,-0.735349,-0.278920,-0.736600,-0.263026,-0.736600,0.263026,-0.717196,0.322745,-0.706842,0.334868,
-0.334868,0.706842,-0.278920,0.735349,-0.263026,0.736600,0.263026,0.736600,0.322745,0.717196,0.322745,0.717196,$1*%
G04 Aperture macros list end*
%ADD10FreePoly0,0.000000*%
%ADD11FreePoly0,90.000000*%
%ADD12O,1.524000X2.844800*%
%ADD13FreePoly0,180.000000*%
%ADD14C,1.803400*%
%ADD15FreePoly1,90.000000*%
%ADD16C,1.473200*%
%ADD17FreePoly2,90.000000*%
%ADD18C,1.574800*%
%ADD19FreePoly0,270.000000*%
%ADD20C,2.082800*%
%ADD21O,2.844800X1.524000*%
%ADD22C,1.903200*%
%ADD23C,1.500000*%
%ADD24RoundRect,0.101600X-0.654000X-0.654000X0.654000X-0.654000X0.654000X0.654000X-0.654000X0.654000X0*%
%ADD25C,1.511200*%
%ADD26O,3.251200X1.727200*%
%ADD27O,1.727200X3.251200*%
%ADD28O,1.200000X2.200000*%
%ADD29O,2.200000X1.200000*%
%ADD30C,2.387600*%
%ADD31C,1.000000*%
%ADD32O,3.556000X1.879600*%
%ADD33C,4.521200*%
%ADD34R,1.050000X1.500000*%
%ADD35O,1.050000X1.500000*%
%ADD36C,3.505200*%
%ADD37C,1.853200*%
%ADD38C,2.403200*%
%ADD39R,1.500000X1.050000*%
%ADD40O,1.500000X1.050000*%
%ADD41RoundRect,0.100000X-0.100000X0.637500X-0.100000X-0.637500X0.100000X-0.637500X0.100000X0.637500X0*%
%ADD42C,3.600000*%
%ADD43RoundRect,0.736600X0.000000X0.000000X0.000000X0.000000X0.000000X0.000000X0.000000X0.000000X0*%
%ADD44C,3.200000*%
G04 APERTURE END LIST*
D10*
%TO.C,R28*%
X136436100Y-58648600D03*
X144056100Y-58648600D03*
%TD*%
D11*
%TO.C,LED9*%
X181521100Y-150723600D03*
X181521100Y-148183600D03*
%TD*%
D12*
%TO.C,R23*%
X206921100Y-145008600D03*
X201841100Y-145008600D03*
X204381100Y-145008600D03*
%TD*%
D13*
%TO.C,R5*%
X196126100Y-70078600D03*
X188506100Y-70078600D03*
%TD*%
D14*
%TO.C,C20*%
X178346100Y-48488600D03*
D15*
X178346100Y-45948600D03*
%TD*%
D16*
%TO.C,C16*%
X192316100Y-46964600D03*
D17*
X192316100Y-44932600D03*
%TD*%
D10*
%TO.C,C5*%
X177711100Y-61823600D03*
X180251100Y-61823600D03*
%TD*%
D18*
%TO.C,L1*%
X182079900Y-91668600D03*
X177076100Y-91668600D03*
%TD*%
D13*
%TO.C,R24*%
X172631100Y-77698600D03*
X165011100Y-77698600D03*
%TD*%
D19*
%TO.C,C35*%
X169456100Y-136118600D03*
X169456100Y-138658600D03*
%TD*%
D11*
%TO.C,R26*%
X101511100Y-52933600D03*
X101511100Y-45313600D03*
%TD*%
D13*
%TO.C,R9*%
X196126100Y-64998600D03*
X188506100Y-64998600D03*
%TD*%
D20*
%TO.C,SWC0*%
X160489900Y-150368000D03*
X166992300Y-150368000D03*
X160489900Y-154889200D03*
X166992300Y-154889200D03*
%TD*%
D21*
%TO.C,S1*%
X196126100Y-83413600D03*
X196126100Y-80873600D03*
X196126100Y-78333600D03*
X196126100Y-75793600D03*
X188506100Y-75793600D03*
X188506100Y-78333600D03*
X188506100Y-80873600D03*
X188506100Y-83413600D03*
%TD*%
D19*
%TO.C,C9*%
X121196100Y-113893600D03*
X121196100Y-116433600D03*
%TD*%
D13*
%TO.C,R11*%
X196126100Y-67538600D03*
X188506100Y-67538600D03*
%TD*%
D22*
%TO.C,D3*%
X104686100Y-45313600D03*
X104686100Y-52933600D03*
%TD*%
D19*
%TO.C,R31*%
X116078000Y-111252000D03*
X116078000Y-118872000D03*
%TD*%
D11*
%TO.C,R15*%
X165011100Y-70078600D03*
X165011100Y-62458600D03*
%TD*%
D23*
%TO.C,S2*%
X107571100Y-128498600D03*
X115771100Y-128498600D03*
D24*
X109671100Y-128498600D03*
D25*
X111671100Y-128498600D03*
X113671100Y-128498600D03*
%TD*%
D11*
%TO.C,LED5*%
X196761100Y-157073600D03*
X196761100Y-154533600D03*
%TD*%
D14*
%TO.C,C21*%
X185966100Y-48488600D03*
D15*
X185966100Y-45948600D03*
%TD*%
D13*
%TO.C,R19*%
X181521100Y-52298600D03*
X173901100Y-52298600D03*
%TD*%
D26*
%TO.C,IC6*%
X105702100Y-66268600D03*
X105702100Y-63728600D03*
X105702100Y-61188600D03*
%TD*%
D12*
%TO.C,IC2*%
X190411100Y-106908600D03*
X192951100Y-106908600D03*
X195491100Y-106908600D03*
X198031100Y-106908600D03*
X200571100Y-106908600D03*
X203111100Y-106908600D03*
X205651100Y-106908600D03*
X208191100Y-106908600D03*
X208191100Y-99288600D03*
X205651100Y-99288600D03*
X203111100Y-99288600D03*
X200571100Y-99288600D03*
X198031100Y-99288600D03*
X195491100Y-99288600D03*
X192951100Y-99288600D03*
X190411100Y-99288600D03*
%TD*%
D11*
%TO.C,R16*%
X152311100Y-70078600D03*
X152311100Y-62458600D03*
%TD*%
%TO.C,LED1*%
X176441100Y-157073600D03*
X176441100Y-154533600D03*
%TD*%
D27*
%TO.C,JP1*%
X131991100Y-127863600D03*
X134531100Y-127863600D03*
X137071100Y-127863600D03*
X139611100Y-127863600D03*
X142151100Y-127863600D03*
X144691100Y-127863600D03*
X147231100Y-127863600D03*
X149771100Y-127863600D03*
X152311100Y-127863600D03*
X154851100Y-127863600D03*
X157391100Y-127863600D03*
X159931100Y-127863600D03*
X162471100Y-127863600D03*
X165011100Y-127863600D03*
%TD*%
D13*
%TO.C,R7*%
X196126100Y-72618600D03*
X188506100Y-72618600D03*
%TD*%
%TO.C,R21*%
X206921100Y-80873600D03*
X199301100Y-80873600D03*
%TD*%
D11*
%TO.C,LED2*%
X181521100Y-157073600D03*
X181521100Y-154533600D03*
%TD*%
D20*
%TO.C,SWUP0*%
X108419900Y-141478000D03*
X114922300Y-141478000D03*
X108419900Y-145999200D03*
X114922300Y-145999200D03*
%TD*%
D16*
%TO.C,C8*%
X196761100Y-142849600D03*
D17*
X196761100Y-140817600D03*
%TD*%
D28*
%TO.C,J2*%
X160486100Y-51400000D03*
X157986100Y-51400000D03*
D29*
X155486100Y-46400000D03*
D28*
X150486100Y-51400000D03*
X152986100Y-51400000D03*
%TD*%
D19*
%TO.C,C29*%
X109131100Y-59918600D03*
X109131100Y-62458600D03*
%TD*%
D12*
%TO.C,RN3*%
X196761100Y-164693600D03*
X194221100Y-164693600D03*
X191681100Y-164693600D03*
X189141100Y-164693600D03*
X186601100Y-164693600D03*
X184061100Y-164693600D03*
X181521100Y-164693600D03*
X178981100Y-164693600D03*
X176441100Y-164693600D03*
%TD*%
D30*
%TO.C,R14*%
X206921100Y-69363600D03*
X206921100Y-64363600D03*
X206921100Y-59363600D03*
X201921100Y-69363600D03*
X201921100Y-64363600D03*
X201921100Y-59363600D03*
%TD*%
D20*
%TO.C,SWLEFT0*%
X99529900Y-150368000D03*
X106032300Y-150368000D03*
X99529900Y-154889200D03*
X106032300Y-154889200D03*
%TD*%
D10*
%TO.C,R27*%
X136436100Y-56108600D03*
X144056100Y-56108600D03*
%TD*%
D11*
%TO.C,C32*%
X122466100Y-79603600D03*
X122466100Y-77063600D03*
%TD*%
D14*
%TO.C,C2*%
X178346100Y-77698600D03*
D15*
X178346100Y-75158600D03*
%TD*%
D31*
%TO.C,J1*%
X92150000Y-109550000D03*
X92150000Y-113950000D03*
%TD*%
D12*
%TO.C,RN1*%
X196761100Y-160883600D03*
X194221100Y-160883600D03*
X191681100Y-160883600D03*
X189141100Y-160883600D03*
X186601100Y-160883600D03*
X184061100Y-160883600D03*
X181521100Y-160883600D03*
X178981100Y-160883600D03*
X176441100Y-160883600D03*
%TD*%
D20*
%TO.C,SWDOWN0*%
X108419900Y-159258000D03*
X114922300Y-159258000D03*
X108419900Y-163779200D03*
X114922300Y-163779200D03*
%TD*%
D11*
%TO.C,LED4*%
X191681100Y-157073600D03*
X191681100Y-154533600D03*
%TD*%
D32*
%TO.C,IC1*%
X125641100Y-77063600D03*
X125641100Y-79603600D03*
X125641100Y-82143600D03*
D33*
X140627100Y-79603600D03*
%TD*%
D21*
%TO.C,RN2*%
X119291100Y-77698600D03*
X119291100Y-80238600D03*
X119291100Y-82778600D03*
X119291100Y-85318600D03*
X119291100Y-87858600D03*
X119291100Y-90398600D03*
X119291100Y-92938600D03*
X119291100Y-95478600D03*
X119291100Y-98018600D03*
%TD*%
D19*
%TO.C,C1*%
X187236100Y-90398600D03*
X187236100Y-92938600D03*
%TD*%
D14*
%TO.C,C26*%
X114211100Y-67538600D03*
D15*
X114211100Y-64998600D03*
%TD*%
D13*
%TO.C,R17*%
X172631100Y-72618600D03*
X165011100Y-72618600D03*
%TD*%
D34*
%TO.C,Q3*%
X109220000Y-118512000D03*
D35*
X107950000Y-118512000D03*
X106680000Y-118512000D03*
%TD*%
D11*
%TO.C,LED6*%
X201841100Y-157073600D03*
X201841100Y-154533600D03*
%TD*%
%TO.C,LED3*%
X186601100Y-157073600D03*
X186601100Y-154533600D03*
%TD*%
D16*
%TO.C,IC5*%
X177711100Y-71983600D03*
X180251100Y-71983600D03*
X182791100Y-71983600D03*
X185331100Y-71983600D03*
X185331100Y-64363600D03*
X182791100Y-64363600D03*
X180251100Y-64363600D03*
X177711100Y-64363600D03*
%TD*%
D10*
%TO.C,R4*%
X188506100Y-62458600D03*
X196126100Y-62458600D03*
%TD*%
D14*
%TO.C,C33*%
X119291100Y-72618600D03*
D15*
X119291100Y-70078600D03*
%TD*%
D11*
%TO.C,LED11*%
X191681100Y-150723600D03*
X191681100Y-148183600D03*
%TD*%
D36*
%TO.C,KK1*%
X99707700Y-68884800D03*
X99707700Y-58572400D03*
%TD*%
D13*
%TO.C,C4*%
X193586100Y-57378600D03*
X191046100Y-57378600D03*
%TD*%
D11*
%TO.C,R1*%
X163741100Y-124053600D03*
X163741100Y-116433600D03*
%TD*%
%TO.C,LED12*%
X90678000Y-133858000D03*
X90678000Y-131318000D03*
%TD*%
D14*
%TO.C,C13*%
X184061100Y-106908600D03*
D15*
X184061100Y-104368600D03*
%TD*%
D11*
%TO.C,R13*%
X118656100Y-118973600D03*
X118656100Y-111353600D03*
%TD*%
D13*
%TO.C,C24*%
X107226100Y-103733600D03*
X104686100Y-103733600D03*
%TD*%
D10*
%TO.C,R6*%
X199301100Y-78333600D03*
X206921100Y-78333600D03*
%TD*%
D11*
%TO.C,LED13*%
X90678000Y-140208000D03*
X90678000Y-137668000D03*
%TD*%
D10*
%TO.C,R3*%
X188506100Y-59918600D03*
X196126100Y-59918600D03*
%TD*%
D12*
%TO.C,IC3*%
X190411100Y-95478600D03*
X192951100Y-95478600D03*
X195491100Y-95478600D03*
X198031100Y-95478600D03*
X200571100Y-95478600D03*
X203111100Y-95478600D03*
X205651100Y-95478600D03*
X208191100Y-95478600D03*
X208191100Y-87858600D03*
X205651100Y-87858600D03*
X203111100Y-87858600D03*
X200571100Y-87858600D03*
X198031100Y-87858600D03*
X195491100Y-87858600D03*
X192951100Y-87858600D03*
X190411100Y-87858600D03*
%TD*%
D11*
%TO.C,LED7*%
X206921100Y-157073600D03*
X206921100Y-154533600D03*
%TD*%
D13*
%TO.C,R22*%
X206921100Y-83413600D03*
X199301100Y-83413600D03*
%TD*%
D14*
%TO.C,C6*%
X184061100Y-77698600D03*
D15*
X184061100Y-75158600D03*
%TD*%
D13*
%TO.C,C18*%
X162471100Y-61823600D03*
X159931100Y-61823600D03*
%TD*%
D20*
%TO.C,SWA0*%
X130009900Y-150368000D03*
X136512300Y-150368000D03*
X130009900Y-154889200D03*
X136512300Y-154889200D03*
%TD*%
D16*
%TO.C,C14*%
X197396100Y-46964600D03*
D17*
X197396100Y-44932600D03*
%TD*%
D19*
%TO.C,C11*%
X186601100Y-132308600D03*
X186601100Y-134848600D03*
%TD*%
%TO.C,C25*%
X187236100Y-99288600D03*
X187236100Y-101828600D03*
%TD*%
D14*
%TO.C,C28*%
X114211100Y-60553600D03*
D15*
X114211100Y-58013600D03*
%TD*%
D11*
%TO.C,LED8*%
X176441100Y-150723600D03*
X176441100Y-148183600D03*
%TD*%
D12*
%TO.C,IC7*%
X205651100Y-110718600D03*
X205651100Y-125958600D03*
X208191100Y-110718600D03*
X200571100Y-110718600D03*
X203111100Y-110718600D03*
X198031100Y-110718600D03*
X195491100Y-110718600D03*
X192951100Y-110718600D03*
X185331100Y-110718600D03*
X182791100Y-125958600D03*
X185331100Y-125958600D03*
X187871100Y-125958600D03*
X190411100Y-125958600D03*
X192951100Y-125958600D03*
X195491100Y-125958600D03*
X198031100Y-125958600D03*
X200571100Y-125958600D03*
X180251100Y-125958600D03*
X208191100Y-125958600D03*
X180251100Y-110718600D03*
X187871100Y-110718600D03*
X190411100Y-110718600D03*
X203111100Y-125958600D03*
X182791100Y-110718600D03*
%TD*%
D37*
%TO.C,J3*%
X109956100Y-76323600D03*
D38*
X109956100Y-97323600D03*
%TD*%
D10*
%TO.C,R10*%
X200571100Y-140563600D03*
X208191100Y-140563600D03*
%TD*%
D13*
%TO.C,C19*%
X157391100Y-61823600D03*
X154851100Y-61823600D03*
%TD*%
D11*
%TO.C,C12*%
X178981100Y-106908600D03*
X178981100Y-104368600D03*
%TD*%
D12*
%TO.C,IC8*%
X203111100Y-137388600D03*
X200571100Y-137388600D03*
X195491100Y-129768600D03*
X205651100Y-129768600D03*
X203111100Y-129768600D03*
X200571100Y-129768600D03*
X198031100Y-129768600D03*
X192951100Y-129768600D03*
X190411100Y-137388600D03*
X192951100Y-137388600D03*
X195491100Y-137388600D03*
X208191100Y-137388600D03*
X208191100Y-129768600D03*
X198031100Y-137388600D03*
X205651100Y-137388600D03*
X190411100Y-129768600D03*
%TD*%
D10*
%TO.C,R8*%
X199301100Y-75793600D03*
X206921100Y-75793600D03*
%TD*%
D26*
%TO.C,Q1*%
X98336100Y-49123600D03*
X98336100Y-51663600D03*
X98336100Y-46583600D03*
%TD*%
D13*
%TO.C,C3*%
X193586100Y-54838600D03*
X191046100Y-54838600D03*
%TD*%
%TO.C,R18*%
X172631100Y-75158600D03*
X165011100Y-75158600D03*
%TD*%
D11*
%TO.C,R12*%
X133896100Y-120878600D03*
X133896100Y-113258600D03*
%TD*%
D33*
%TO.C,J4*%
X113576100Y-47298600D03*
X108876100Y-50298600D03*
X113576100Y-53298600D03*
%TD*%
D11*
%TO.C,C30*%
X109131100Y-67538600D03*
X109131100Y-64998600D03*
%TD*%
%TO.C,C31*%
X125641100Y-74523600D03*
X125641100Y-71983600D03*
%TD*%
D39*
%TO.C,Q2*%
X101600000Y-117856000D03*
D40*
X101600000Y-119126000D03*
X101600000Y-120396000D03*
%TD*%
D20*
%TO.C,SWRIGHT0*%
X117309900Y-150368000D03*
X123812300Y-150368000D03*
X117309900Y-154889200D03*
X123812300Y-154889200D03*
%TD*%
D16*
%TO.C,C17*%
X192316100Y-52044600D03*
D17*
X192316100Y-50012600D03*
%TD*%
D13*
%TO.C,R20*%
X181521100Y-54838600D03*
X173901100Y-54838600D03*
%TD*%
D10*
%TO.C,R25*%
X165011100Y-80238600D03*
X172631100Y-80238600D03*
%TD*%
D20*
%TO.C,SWB0*%
X145249900Y-150368000D03*
X151752300Y-150368000D03*
X145249900Y-154889200D03*
X151752300Y-154889200D03*
%TD*%
D11*
%TO.C,LED14*%
X90678000Y-146558000D03*
X90678000Y-144018000D03*
%TD*%
D14*
%TO.C,C7*%
X184061100Y-83413600D03*
D15*
X184061100Y-80873600D03*
%TD*%
D19*
%TO.C,R29*%
X113538000Y-111252000D03*
X113538000Y-118872000D03*
%TD*%
D16*
%TO.C,C15*%
X197396100Y-52044600D03*
D17*
X197396100Y-50012600D03*
%TD*%
D11*
%TO.C,C34*%
X169456100Y-134213600D03*
X169456100Y-131673600D03*
%TD*%
%TO.C,LED10*%
X186601100Y-150723600D03*
X186601100Y-148183600D03*
%TD*%
%TO.C,R2*%
X161201100Y-124053600D03*
X161201100Y-116433600D03*
%TD*%
D12*
%TO.C,IC4*%
X131991100Y-139293600D03*
X134531100Y-139293600D03*
X137071100Y-139293600D03*
X139611100Y-139293600D03*
X142151100Y-139293600D03*
X144691100Y-139293600D03*
X147231100Y-139293600D03*
X149771100Y-139293600D03*
X152311100Y-139293600D03*
X154851100Y-139293600D03*
X157391100Y-139293600D03*
X159931100Y-139293600D03*
X162471100Y-139293600D03*
X165011100Y-139293600D03*
X165011100Y-131673600D03*
X162471100Y-131673600D03*
X159931100Y-131673600D03*
X157391100Y-131673600D03*
X154851100Y-131673600D03*
X152311100Y-131673600D03*
X149771100Y-131673600D03*
X147231100Y-131673600D03*
X144691100Y-131673600D03*
X142151100Y-131673600D03*
X139611100Y-131673600D03*
X137071100Y-131673600D03*
X134531100Y-131673600D03*
X131991100Y-131673600D03*
%TD*%
D14*
%TO.C,C10*%
X119926100Y-106273600D03*
D15*
X119926100Y-103733600D03*
%TD*%
D41*
%TO.C,IC10*%
X172589000Y-133281500D03*
X173239000Y-133281500D03*
X173889000Y-133281500D03*
X174539000Y-133281500D03*
X175189000Y-133281500D03*
X175839000Y-133281500D03*
X176489000Y-133281500D03*
X177139000Y-133281500D03*
X177789000Y-133281500D03*
X178439000Y-133281500D03*
X178439000Y-139006500D03*
X177789000Y-139006500D03*
X177139000Y-139006500D03*
X176489000Y-139006500D03*
X175839000Y-139006500D03*
X175189000Y-139006500D03*
X174539000Y-139006500D03*
X173889000Y-139006500D03*
X173239000Y-139006500D03*
X172589000Y-139006500D03*
%TD*%
D42*
%TO.C,H1*%
X130213100Y-55600600D03*
%TD*%
D43*
%TO.C,TP_SCL0*%
X161201100Y-121513600D03*
%TD*%
%TO.C,TP_3V3*%
X116751100Y-72618600D03*
%TD*%
%TO.C,TP_RX0*%
X105321100Y-107543600D03*
%TD*%
D42*
%TO.C,H5*%
X126530100Y-46837600D03*
%TD*%
%TO.C,H2*%
X166789100Y-55600600D03*
%TD*%
D43*
%TO.C,TP_VIN_SW0*%
X114211100Y-70713600D03*
%TD*%
%TO.C,TP_GND0*%
X124371100Y-58648600D03*
%TD*%
D44*
%TO.C,H3*%
X90716100Y-47218600D03*
%TD*%
D43*
%TO.C,EX_A0*%
X150406100Y-117068600D03*
%TD*%
D42*
%TO.C,H6*%
X170472100Y-46837600D03*
%TD*%
D44*
%TO.C,H8*%
X206286100Y-47218600D03*
%TD*%
D43*
%TO.C,TP_VIN0*%
X107226100Y-55473600D03*
%TD*%
%TO.C,TP_BOOTMODE0*%
X112941100Y-79603600D03*
%TD*%
%TO.C,TP_TX0*%
X105321100Y-110718600D03*
%TD*%
%TO.C,EX_B0*%
X147866100Y-120878600D03*
%TD*%
%TO.C,TP_RESET0*%
X118618000Y-114046000D03*
%TD*%
%TO.C,TP_5V0*%
X110401100Y-58013600D03*
%TD*%
D44*
%TO.C,H4*%
X90716100Y-162788600D03*
%TD*%
%TO.C,H7*%
X206286100Y-162788600D03*
%TD*%
D43*
%TO.C,TP_SDA0*%
X163741100Y-118973600D03*
%TD*%
M02*
