M48
; DRILL file {KiCad 7.0.2} date Tue May 21 23:15:02 2024
; FORMAT={-:-/ absolute / metric / decimal}
; #@! TF.CreationDate,2024-05-21T23:15:02+08:00
; #@! TF.GenerationSoftware,Kicad,Pcbnew,7.0.2
; #@! TF.FileFunction,MixedPlating,1,2
FMAT,2
METRIC
; #@! TA.AperFunction,Plated,PTH,ViaDrill
T1C0.350
; #@! TA.AperFunction,Plated,PTH,ViaDrill
T2C0.400
; #@! TA.AperFunction,Plated,PTH,ComponentDrill
T3C0.400
; #@! TA.AperFunction,Plated,PTH,ComponentDrill
T4C0.750
; #@! TA.AperFunction,Plated,PTH,ComponentDrill
T5C0.800
; #@! TA.AperFunction,Plated,PTH,ComponentDrill
T6C0.813
; #@! TA.AperFunction,Plated,PTH,ComponentDrill
T7C0.864
; #@! TA.AperFunction,Plated,PTH,ComponentDrill
T8C1.016
; #@! TA.AperFunction,Plated,PTH,ComponentDrill
T9C1.100
; #@! TA.AperFunction,Plated,PTH,ComponentDrill
T10C1.118
; #@! TA.AperFunction,Plated,PTH,ComponentDrill
T11C1.200
; #@! TA.AperFunction,Plated,PTH,ComponentDrill
T12C1.600
; #@! TA.AperFunction,Plated,PTH,ComponentDrill
T13C2.540
; #@! TA.AperFunction,Plated,PTH,ComponentDrill
T14C2.997
; #@! TA.AperFunction,Plated,PTH,ComponentDrill
T15C3.302
; #@! TA.AperFunction,NonPlated,NPTH,ComponentDrill
T16C1.000
; #@! TA.AperFunction,NonPlated,NPTH,ComponentDrill
T17C1.200
; #@! TA.AperFunction,NonPlated,NPTH,ComponentDrill
T18C1.500
; #@! TA.AperFunction,NonPlated,NPTH,ComponentDrill
T19C3.200
; #@! TA.AperFunction,NonPlated,NPTH,ComponentDrill
T20C3.600
%
G90
G05
T1
X105.664Y-109.728
X106.591Y-107.544
X114.846Y-78.334
X114.846Y-80.239
X114.846Y-84.684
X114.846Y-92.304
X114.846Y-94.844
X114.846Y-97.384
X124.371Y-113.894
X125.641Y-160.249
X126.911Y-116.434
X126.911Y-158.979
X128.181Y-125.959
X128.181Y-157.709
X128.816Y-120.244
X131.991Y-75.794
X131.991Y-78.334
X131.991Y-80.874
X131.991Y-83.414
X133.261Y-110.084
X133.896Y-77.064
X133.896Y-79.604
X133.896Y-82.144
X135.166Y-111.989
X135.801Y-75.794
X135.801Y-78.334
X135.801Y-80.874
X135.801Y-83.414
X137.071Y-107.544
X137.071Y-108.814
X137.706Y-77.064
X137.706Y-82.144
X137.706Y-97.384
X138.976Y-75.794
X138.976Y-83.414
X140.881Y-115.799
X142.151Y-107.544
X142.151Y-111.354
X142.786Y-98.019
X143.421Y-113.894
X143.421Y-118.339
X144.056Y-99.972
X144.691Y-113.894
X144.691Y-119.609
X147.231Y-110.084
X149.136Y-101.194
X149.771Y-111.354
X149.771Y-113.894
X151.041Y-111.354
X151.041Y-113.894
X154.851Y-99.289
X156.121Y-112.704
X158.661Y-85.319
X159.296Y-113.894
X159.931Y-97.384
X159.931Y-99.924
X159.931Y-105.004
X159.931Y-106.274
X160.566Y-84.684
X161.836Y-85.954
X162.471Y-112.624
X163.741Y-108.814
X166.281Y-117.069
X168.821Y-141.834
X170.091Y-141.199
X171.361Y-141.834
X184.696Y-115.164
X188.506Y-115.164
X190.411Y-132.944
X192.951Y-113.894
T2
X110.236Y-116.078
X161.201Y-129.959
X174.244Y-130.81
X174.752Y-140.462
T4
X101.6Y-117.856
X101.6Y-119.126
X101.6Y-120.396
X106.68Y-118.512
X107.95Y-118.512
X109.22Y-118.512
T5
X109.671Y-128.499
X111.671Y-128.499
X113.671Y-128.499
T6
X90.678Y-131.318
X90.678Y-133.858
X90.678Y-137.668
X90.678Y-140.208
X90.678Y-144.018
X90.678Y-146.558
X101.511Y-45.314
X101.511Y-52.934
X104.686Y-103.734
X107.226Y-103.734
X109.131Y-59.919
X109.131Y-62.459
X109.131Y-64.999
X109.131Y-67.539
X113.538Y-111.252
X113.538Y-118.872
X114.211Y-58.014
X114.211Y-60.554
X114.211Y-64.999
X114.211Y-67.539
X116.078Y-111.252
X116.078Y-118.872
X118.656Y-111.354
X118.656Y-118.974
X119.291Y-70.079
X119.291Y-72.619
X119.291Y-77.699
X119.291Y-80.239
X119.291Y-82.779
X119.291Y-85.319
X119.291Y-87.859
X119.291Y-90.399
X119.291Y-92.939
X119.291Y-95.479
X119.291Y-98.019
X119.926Y-103.734
X119.926Y-106.274
X121.196Y-113.894
X121.196Y-116.434
X122.466Y-77.064
X122.466Y-79.604
X125.641Y-71.984
X125.641Y-74.524
X131.991Y-131.674
X131.991Y-139.294
X133.896Y-113.259
X133.896Y-120.879
X134.531Y-131.674
X134.531Y-139.294
X136.436Y-56.109
X136.436Y-58.649
X137.071Y-131.674
X137.071Y-139.294
X139.611Y-131.674
X139.611Y-139.294
X142.151Y-131.674
X142.151Y-139.294
X144.056Y-56.109
X144.056Y-58.649
X144.691Y-131.674
X144.691Y-139.294
X147.231Y-131.674
X147.231Y-139.294
X149.771Y-131.674
X149.771Y-139.294
X152.311Y-62.459
X152.311Y-70.079
X152.311Y-131.674
X152.311Y-139.294
X154.851Y-61.824
X154.851Y-131.674
X154.851Y-139.294
X157.391Y-61.824
X157.391Y-131.674
X157.391Y-139.294
X159.931Y-61.824
X159.931Y-131.674
X159.931Y-139.294
X161.201Y-116.434
X161.201Y-124.054
X162.471Y-61.824
X162.471Y-131.674
X162.471Y-139.294
X163.741Y-116.434
X163.741Y-124.054
X165.011Y-62.459
X165.011Y-70.079
X165.011Y-72.619
X165.011Y-75.159
X165.011Y-77.699
X165.011Y-80.239
X165.011Y-131.674
X165.011Y-139.294
X169.456Y-131.674
X169.456Y-134.214
X169.456Y-136.119
X169.456Y-138.659
X172.631Y-72.619
X172.631Y-75.159
X172.631Y-77.699
X172.631Y-80.239
X173.901Y-52.299
X173.901Y-54.839
X176.441Y-148.184
X176.441Y-150.724
X176.441Y-154.534
X176.441Y-157.074
X176.441Y-160.884
X176.441Y-164.694
X177.711Y-61.824
X177.711Y-64.364
X177.711Y-71.984
X178.346Y-45.949
X178.346Y-48.489
X178.346Y-75.159
X178.346Y-77.699
X178.981Y-104.369
X178.981Y-106.909
X178.981Y-160.884
X178.981Y-164.694
X180.251Y-61.824
X180.251Y-64.364
X180.251Y-71.984
X180.251Y-110.719
X180.251Y-125.959
X181.521Y-52.299
X181.521Y-54.839
X181.521Y-148.184
X181.521Y-150.724
X181.521Y-154.534
X181.521Y-157.074
X181.521Y-160.884
X181.521Y-164.694
X182.791Y-64.364
X182.791Y-71.984
X182.791Y-110.719
X182.791Y-125.959
X184.061Y-75.159
X184.061Y-77.699
X184.061Y-80.874
X184.061Y-83.414
X184.061Y-104.369
X184.061Y-106.909
X184.061Y-160.884
X184.061Y-164.694
X185.331Y-64.364
X185.331Y-71.984
X185.331Y-110.719
X185.331Y-125.959
X185.966Y-45.949
X185.966Y-48.489
X186.601Y-132.309
X186.601Y-134.849
X186.601Y-148.184
X186.601Y-150.724
X186.601Y-154.534
X186.601Y-157.074
X186.601Y-160.884
X186.601Y-164.694
X187.236Y-90.399
X187.236Y-92.939
X187.236Y-99.289
X187.236Y-101.829
X187.871Y-110.719
X187.871Y-125.959
X188.506Y-59.919
X188.506Y-62.459
X188.506Y-64.999
X188.506Y-67.539
X188.506Y-70.079
X188.506Y-72.619
X188.506Y-75.794
X188.506Y-78.334
X188.506Y-80.874
X188.506Y-83.414
X189.141Y-160.884
X189.141Y-164.694
X190.411Y-87.859
X190.411Y-95.479
X190.411Y-99.289
X190.411Y-106.909
X190.411Y-110.719
X190.411Y-125.959
X190.411Y-129.769
X190.411Y-137.389
X191.046Y-54.839
X191.046Y-57.379
X191.681Y-148.184
X191.681Y-150.724
X191.681Y-154.534
X191.681Y-157.074
X191.681Y-160.884
X191.681Y-164.694
X192.316Y-44.933
X192.316Y-46.965
X192.316Y-50.013
X192.316Y-52.045
X192.951Y-87.859
X192.951Y-95.479
X192.951Y-99.289
X192.951Y-106.909
X192.951Y-110.719
X192.951Y-125.959
X192.951Y-129.769
X192.951Y-137.389
X193.586Y-54.839
X193.586Y-57.379
X194.221Y-160.884
X194.221Y-164.694
X195.491Y-87.859
X195.491Y-95.479
X195.491Y-99.289
X195.491Y-106.909
X195.491Y-110.719
X195.491Y-125.959
X195.491Y-129.769
X195.491Y-137.389
X196.126Y-59.919
X196.126Y-62.459
X196.126Y-64.999
X196.126Y-67.539
X196.126Y-70.079
X196.126Y-72.619
X196.126Y-75.794
X196.126Y-78.334
X196.126Y-80.874
X196.126Y-83.414
X196.761Y-140.818
X196.761Y-142.85
X196.761Y-154.534
X196.761Y-157.074
X196.761Y-160.884
X196.761Y-164.694
X197.396Y-44.933
X197.396Y-46.965
X197.396Y-50.013
X197.396Y-52.045
X198.031Y-87.859
X198.031Y-95.479
X198.031Y-99.289
X198.031Y-106.909
X198.031Y-110.719
X198.031Y-125.959
X198.031Y-129.769
X198.031Y-137.389
X199.301Y-75.794
X199.301Y-78.334
X199.301Y-80.874
X199.301Y-83.414
X200.571Y-87.859
X200.571Y-95.479
X200.571Y-99.289
X200.571Y-106.909
X200.571Y-110.719
X200.571Y-125.959
X200.571Y-129.769
X200.571Y-137.389
X200.571Y-140.564
X201.841Y-145.009
X201.841Y-154.534
X201.841Y-157.074
X203.111Y-87.859
X203.111Y-95.479
X203.111Y-99.289
X203.111Y-106.909
X203.111Y-110.719
X203.111Y-125.959
X203.111Y-129.769
X203.111Y-137.389
X204.381Y-145.009
X205.651Y-87.859
X205.651Y-95.479
X205.651Y-99.289
X205.651Y-106.909
X205.651Y-110.719
X205.651Y-125.959
X205.651Y-129.769
X205.651Y-137.389
X206.921Y-75.794
X206.921Y-78.334
X206.921Y-80.874
X206.921Y-83.414
X206.921Y-145.009
X206.921Y-154.534
X206.921Y-157.074
X208.191Y-87.859
X208.191Y-95.479
X208.191Y-99.289
X208.191Y-106.909
X208.191Y-110.719
X208.191Y-125.959
X208.191Y-129.769
X208.191Y-137.389
X208.191Y-140.564
T7
X177.076Y-91.669
X182.08Y-91.669
T8
X98.336Y-46.584
X98.336Y-49.124
X98.336Y-51.664
X99.53Y-150.368
X99.53Y-154.889
X105.702Y-61.189
X105.702Y-63.729
X105.702Y-66.269
X106.032Y-150.368
X106.032Y-154.889
X108.42Y-141.478
X108.42Y-145.999
X108.42Y-159.258
X108.42Y-163.779
X114.922Y-141.478
X114.922Y-145.999
X114.922Y-159.258
X114.922Y-163.779
X117.31Y-150.368
X117.31Y-154.889
X123.812Y-150.368
X123.812Y-154.889
X130.01Y-150.368
X130.01Y-154.889
X131.991Y-127.864
X134.531Y-127.864
X136.512Y-150.368
X136.512Y-154.889
X137.071Y-127.864
X139.611Y-127.864
X142.151Y-127.864
X144.691Y-127.864
X145.25Y-150.368
X145.25Y-154.889
X147.231Y-127.864
X149.771Y-127.864
X151.752Y-150.368
X151.752Y-154.889
X152.311Y-127.864
X154.851Y-127.864
X157.391Y-127.864
X159.931Y-127.864
X160.49Y-150.368
X160.49Y-154.889
X162.471Y-127.864
X165.011Y-127.864
X166.992Y-150.368
X166.992Y-154.889
T9
X104.686Y-45.314
X104.686Y-52.934
X109.956Y-76.324
T10
X125.641Y-77.064
X125.641Y-79.604
X125.641Y-82.144
T11
X201.921Y-59.364
X201.921Y-64.364
X201.921Y-69.364
X206.921Y-59.364
X206.921Y-64.364
X206.921Y-69.364
T12
X109.956Y-97.324
T13
X99.708Y-58.572
X99.708Y-68.885
T14
X108.876Y-50.299
X113.576Y-47.299
X113.576Y-53.299
T15
X140.627Y-79.604
T16
X92.15Y-109.55
X92.15Y-113.95
T17
X150.486Y-43.9
X150.486Y-46.4
X155.486Y-51.4
X160.486Y-43.9
X160.486Y-46.4
T18
X107.571Y-128.499
X115.771Y-128.499
T19
X90.716Y-47.219
X90.716Y-162.789
X206.286Y-47.219
X206.286Y-162.789
T20
X126.53Y-46.838
X130.213Y-55.601
X166.789Y-55.601
X170.472Y-46.838
T3
G00X150.486Y-50.9
M15
G01X150.486Y-51.9
M16
G05
G00X152.986Y-50.9
M15
G01X152.986Y-51.9
M16
G05
G00X155.986Y-46.4
M15
G01X154.986Y-46.4
M16
G05
G00X157.986Y-51.9
M15
G01X157.986Y-50.9
M16
G05
G00X160.486Y-51.9
M15
G01X160.486Y-50.9
M16
G05
T0
M30
